<svg viewBox="0 0 1200 400" xmlns="http://www.w3.org/2000/svg">
  <!-- Green Q shape -->
  <path d="M 200 80 Q 200 40 240 40 L 420 40 Q 460 40 460 80 L 460 260 Q 460 300 420 300 L 240 300 Q 200 300 200 260 L 200 180 L 160 180 Q 120 180 120 140 L 120 80 Q 120 40 160 40 L 240 40" fill="none" stroke="#7ec850" stroke-width="50" stroke-linecap="round" stroke-linejoin="round"/>
  
  <!-- Gray vertical bar in Q -->
  <rect x="310" y="220" width="35" height="90" fill="#6b7280" rx="17.5"/>
  
  <!-- Green S shape -->
  <path d="M 520 80 L 640 80 Q 680 80 680 120 L 680 160 Q 680 200 640 200 L 520 200 Q 480 200 480 240 L 480 280 Q 480 320 520 320 L 640 320 Q 680 320 680 280" fill="none" stroke="#7ec850" stroke-width="50" stroke-linecap="round" stroke-linejoin="round"/>
  
  <!-- QOPHA text -->
  <text x="50" y="380" font-family="Arial, sans-serif" font-size="60" font-weight="bold" fill="#6b7280" letter-spacing="3">QOPHA</text>
  
  <!-- SOLUTIONS text -->
  <text x="500" y="380" font-family="Arial, sans-serif" font-size="60" font-weight="bold" fill="#6b7280" letter-spacing="3">SOLUTIONS</text>
</svg>
