<svg viewBox="0 0 1200 600" xmlns="http://www.w3.org/2000/svg">
  <!-- Green Q shape -->
  <path d="M 300 150 Q 300 100 350 100 L 550 100 Q 600 100 600 150 L 600 350 Q 600 400 550 400 L 350 400 Q 300 400 300 350 L 300 250 L 250 250 Q 200 250 200 200 L 200 150 Q 200 100 250 100 L 350 100" fill="none" stroke="#7ec850" stroke-width="60" stroke-linecap="round" stroke-linejoin="round"/>
  
  <!-- Gray vertical bar in Q -->
  <rect x="420" y="300" width="40" height="120" fill="#6b7280" rx="20"/>
  
  <!-- Green S shape -->
  <path d="M 750 150 L 900 150 Q 950 150 950 200 L 950 250 Q 950 300 900 300 L 750 300 Q 700 300 700 350 L 700 400 Q 700 450 750 450 L 900 450 Q 950 450 950 400" fill="none" stroke="#7ec850" stroke-width="60" stroke-linecap="round" stroke-linejoin="round"/>
  
  <!-- Text: QOPHA SOLUTIONS -->
  <text x="100" y="500" font-family="Arial, sans-serif" font-size="80" font-weight="bold" fill="#6b7280" letter-spacing="4">QOPHA</text>
  <text x="700" y="500" font-family="Arial, sans-serif" font-size="80" font-weight="bold" fill="#6b7280" letter-spacing="4">SOLUTIONS</text>
</svg>
