<svg viewBox="0 0 24 24" xmlns="http://www.w3.org/2000/svg" fill="#ffffff">
  <path d="M17.472 14.382c-.297-.149-1.758-.867-2.03-.967-.272-.099-.471-.148-.67.15-.197.297-.767.966-.94 1.164-.173.199-.347.223-.644.075-.297-.15-1.255-.463-2.39-1.475-.883-.788-1.48-1.761-1.653-2.059-.173-.297-.018-.458.13-.606.134-.133.298-.347.446-.52.149-.174.198-.298.298-.497.099-.198.05-.371-.025-.52-.075-.149-.669-1.612-.916-2.207-.242-.579-.487-.5-.67-.51-.173-.008-.371-.01-.57-.01-.198 0-.52.074-.792.372-.272.297-1.04 1.016-1.04 2.479 0 1.462 1.065 2.875 1.213 3.074.149.198 2.096 3.2 5.076 4.487.709.306 1.262.489 1.694.625.712.227 1.36.195 1.871.118.571-.085 1.758-.719 2.006-1.413.248-.694.248-1.289.173-1.413-.074-.124-.272-.198-.57-.347m-5.421-7.403h-.004a9.87 9.87 0 00-4.846 1.235c-1.477.853-2.697 2.049-3.557 3.408-1.286 2.011-1.57 4.386-.787 6.59.779 2.189 2.383 3.968 4.212 4.991.575.33 1.331.893 2.251 1.281 1.287.508 2.26.465 2.901.433 1.193-.086 2.3-.532 3.19-1.191.631-.455 1.268-1.124 1.788-1.874.35-.487.641-1.042.786-1.465.239-.708.267-1.51.103-2.159-.321-1.304-1.105-2.432-2.175-3.127-.584-.387-1.25-.597-1.956-.597-.288 0-.576.031-.86.091-1.231.218-2.396.893-3.143 1.879-.384.496-.69 1.087-.855 1.69-.24.874-.053 1.784.535 2.417.325.341.792.622 1.383.774.37.091.755.104 1.14.062 1.147-.13 2.226-.642 2.986-1.424.467-.49.829-1.111 1.05-1.778.152-.458.214-.943.183-1.427-.155-2.457-2.018-4.512-4.476-4.718z"/>
</svg>
